<svg width="512" height="512" viewBox="0 0 512 512" xmlns="http://www.w3.org/2000/svg" role="img" aria-label="Scheddy, a smiling robot in an orange coatee">
  <rect width="512" height="512" fill="#FFFFFF"/>

  <!-- Coat (orange) -->
  <path
    d="M136 448V324c0-58.5 47.5-106 106-106h28c58.5 0 106 47.5 106 106v124H136z"
    fill="#FF6B35"
  />

  <!-- Shirt (white) -->
  <path
    d="M196 448V338c0-34.2 27.8-62 62-62h-4c34.2 0 62 27.8 62 62v110H196z"
    fill="#FFFFFF"
  />

  <!-- Lapels (white) -->
  <path d="M188 304l56 64-40 44h-28c0-43.5 4.5-79 12-108z" fill="#FFFFFF"/>
  <path d="M324 304l-56 64 40 44h28c0-43.5-4.5-79-12-108z" fill="#FFFFFF"/>

  <!-- Buttons (orange) -->
  <circle cx="256" cy="356" r="9" fill="#FF6B35"/>
  <circle cx="256" cy="392" r="9" fill="#FF6B35"/>

  <!-- Head (white) -->
  <circle cx="256" cy="168" r="92" fill="#FFFFFF"/>

  <!-- Neck (orange) -->
  <rect x="232" y="244" width="48" height="44" rx="18" fill="#FF6B35"/>

  <!-- Eyes (orange only) -->
  <circle cx="222" cy="160" r="14" fill="#FF6B35"/>
  <circle cx="290" cy="160" r="14" fill="#FF6B35"/>

  <!-- Smile (orange) -->
  <path d="M216 196c12 18 28 26 40 26s28-8 40-26" fill="none" stroke="#FF6B35" stroke-width="10" stroke-linecap="round"/>

  <!-- Small crown cap (orange) -->
  <path d="M228 84h56a10 10 0 0 1 10 10v18H218V94a10 10 0 0 1 10-10z" fill="#FF6B35"/>
</svg>
